<svg height="512pt" viewBox="0 0 512.00021 512" width="512pt" xmlns="http://www.w3.org/2000/svg"><g fill="#ffb954"><path d="m279.878906 256.269531 18.925782 55.929688h22.125l18.984374-55.929688zm0 0"/><path d="m439.738281 256.765625h-61.613281l18.753906 55.433594h24.042969zm0 0"/><path d="m429.707031 321.699219h-26.910156l-61.515625 66.492187c-18.605469 20.113282-24.46875 48.910156-15.199219 74.691406 5.976563 16.632813 17.550781 30.09375 32.136719 38.59375 2.78125.320313 5.601562.488282 8.453125.488282h61.875c30.972656 0 58.613281-19.4375 69.089844-48.582032 9.269531-25.78125 3.40625-54.578124-15.199219-74.691406zm0 0"/><path d="m294.582031 452.882812c-9.265625-25.78125-3.40625-54.578124 15.199219-74.691406l36.101562-39.019531-16.628906-17.976563h-24.949218l-61.519532 66.496094c-18.605468 20.109375-24.464844 48.90625-15.199218 74.691406 6.164062 17.140626 18.269531 30.921876 33.492187 39.367188 1.851563.140625 3.71875.214844 5.601563.214844h61.875c6.371093 0 12.59375-.832032 18.5625-2.394532-23.941407-5.539062-43.972657-22.867187-52.535157-46.6875zm0 0"/></g><path d="m131.492188 257.265625h-51.996094v219.699219c0 9.355468 4.941406 17.554687 12.359375 22.136718 8.390625-4.3125 14.136719-13.050781 14.136719-23.136718 0 9.863281 5.492187 18.445312 13.585937 22.847656l24.273437.285156c8.390626-4.308594 14.136719-13.046875 14.136719-23.132812v-218.699219zm0 0" fill="#72d8ff"/><path d="m129.242188 23.75c-22.089844 0-40 17.90625-40 39.996094v8c0 9.703125 3.460937 18.601562 9.210937 25.527344 2.441406.464843 4.960937.71875 7.539063.71875 22.089843 0 39.996093-17.90625 39.996093-39.996094v-8c0-9.703125-3.457031-18.601563-9.207031-25.527344-2.441406-.46875-4.960938-.71875-7.539062-.71875zm0 0" fill="#feda9b"/><path d="m157.988281 256.269531v-158.277343l-77.660156.335937-26.332031 157.941406zm0 0" fill="#ff5d5d"/><path d="m101.949219 97.992188h30.570312c30.582031 0 57.769531 19.472656 67.621094 48.425781l18.511719 54.402343 36.171875 42.988282c7.21875 8.578125 7.210937 21.101562-.011719 29.671875-8.695312 10.3125-24.351562 10.976562-33.890625 1.4375l-35.433594-35.433594-27.5-41.585937" fill="#ff5d5d"/><path d="m106.761719 102.660156c-39.449219 0-71.429688 31.980469-71.429688 71.429688v121.5625c0 5.898437 2.324219 11.25 6.105469 15.199218 7.417969-3.535156 12.546875-11.101562 12.546875-19.867187l4-76.5 49.714844-111.824219zm0 0" fill="#ff5d5d"/><path d="m489.78125 371.902344-57.476562-62.121094 17.070312-50.300781c1.039062-3.050781.539062-6.417969-1.339844-9.039063-1.878906-2.617187-4.90625-4.171875-8.128906-4.171875h-84.53125c-3.011719 0-5.839844 1.367188-7.730469 3.683594-1.890625-2.316406-4.71875-3.683594-7.730469-3.683594h-72.070312c-1.277344-3.160156-3.066406-6.167969-5.367188-8.902343l-34.964843-41.546876-17.902344-52.625c-9.851563-28.957031-34.890625-49.574218-64.425781-54.210937 6.757812-8.527344 10.804687-19.289063 10.804687-30.988281v-8c0-27.566406-22.425781-49.996094-49.996093-49.996094-27.566407 0-49.996094 22.429688-49.996094 49.996094v8c0 11.839844 4.144531 22.722656 11.046875 31.296875-38.058594 6.816406-67.042969 40.140625-67.042969 80.128906v121.5625c0 17.640625 14.351562 31.992187 31.992188 31.992187 4.246093 0 8.296874-.835937 12.003906-2.34375v26.492188c0 5.519531 4.480468 9.996094 10 9.996094 5.523437 0 10-4.476563 10-9.996094v-80.855469h83.992187v209.699219c0 8.820312-7.175781 15.996094-15.996093 15.996094-8.824219 0-16-7.175782-16-15.996094v-157.992188c0-5.519531-4.476563-9.996093-10-9.996093-5.519532 0-10 4.476562-10 9.996093v157.992188c0 8.820312-7.175782 15.996094-15.996094 15.996094-8.824219 0-16-7.175782-16-15.996094v-49.703125c0-5.519531-4.476563-10-10-10-5.519532 0-10 4.480469-10 10v49.703125c0 19.847656 16.148437 35.996094 36 35.996094 10.210937 0 19.4375-4.28125 25.996094-11.136719 6.558593 6.855469 15.785156 11.136719 26 11.136719 19.847656 0 35.996093-16.148438 35.996093-35.996094v-244.820312l9.160157 13.851562c.367187.558594.792968 1.078125 1.269531 1.554688l35.433593 35.433593c6.191407 6.191407 14.640626 9.675781 23.363282 9.675781.464844 0 .929687-.011718 1.394531-.03125 5.878906-.25 11.542969-2.085937 16.421875-5.207031l7.898438 23.347657-57.480469 62.128906c-21.222657 22.9375-27.839844 55.457031-17.269531 84.863281 11.867187 33.019531 43.414062 55.199219 78.5 55.199219h61.875c6.433593 0 12.851562-.746094 19.089843-2.214844 6.152344 1.449219 12.53125 2.214844 19.027344 2.214844h61.878906c35.082031 0 66.628907-22.183594 78.496094-55.199219 10.570313-29.410156 3.953125-61.925781-17.265625-84.863281zm-63.828125-105.632813-12.195313 35.929688h-32.285156l-12.160156-35.929688zm-78.3125-1.65625 15.28125 45.15625-15.308594 16.550781-15.300781-16.542968zm-33.875 37.585938h-32.285156l-11.773438-34.796875c-.113281-.335938-.25-.652344-.394531-.96875.011719-.054688.023438-.109375.039062-.167969h56.609376zm-237.769531-252.203125c0-16.539063 13.457031-29.996094 29.996094-29.996094 16.542968 0 30 13.457031 30 29.996094v8c0 16.539062-13.457032 29.996094-30 29.996094-16.539063 0-29.996094-13.457032-29.996094-29.996094zm161.761718 221.65625c-3.6875.148437-7.15625-1.195313-9.765624-3.804688l-34.722657-34.722656-25.28125-38.234375v-18.761719c0-5.523437-4.476562-10-10-10-5.519531 0-10 4.476563-10 10v21.671875.019531 48.449219h-83.992187v-70.140625c0-5.523437-4.476563-10-10-10-5.519532 0-10 4.476563-10 10v38.125c0 .078125-.011719.152344-.011719.230469v76.5c0 6.613281-5.378906 11.992187-11.992187 11.992187-6.613282 0-11.992188-5.378906-11.992188-11.992187v-121.5625c0-33.871094 27.558594-61.429687 61.429688-61.429687h51.089843c26.3125 0 49.683594 16.734374 58.15625 41.644531l18.511719 54.402343c.398438 1.175782 1.015625 2.265626 1.8125 3.21875l36.175781 42.988282c4.09375 4.863281 4.089844 11.925781-.007812 16.785156-2.378907 2.824219-5.722657 4.464844-9.410157 4.621094zm28.921876 220.3125c-26.675782 0-50.65625-16.863282-59.679688-41.964844-8.035156-22.355469-3.007812-47.078125 13.128906-64.515625l58.550782-63.285156h37.875l17.4375 18.84375-28.550782 30.859375c-21.222656 22.9375-27.839844 55.453125-17.269531 84.863281 5.019531 13.960937 13.5625 25.972656 24.398437 35.199219zm221.546874-41.964844c-9.019531 25.101562-33.003906 41.964844-59.679687 41.964844h-61.875c-26.675781 0-50.65625-16.863282-59.679687-41.964844-8.035157-22.355469-3.003907-47.078125 13.128906-64.515625l58.550781-63.285156h37.878906l58.546875 63.285156c16.132813 17.4375 21.164063 42.160156 13.128906 64.515625zm0 0"/><path d="m428.574219 379.375c4.054687-3.746094 4.304687-10.070312.558593-14.128906l-.25-.269532c-3.746093-4.058593-10.074218-4.308593-14.128906-.558593-4.058594 3.746093-4.308594 10.074219-.558594 14.128906l.25.269531c1.96875 2.132813 4.652344 3.214844 7.347657 3.214844 2.425781 0 4.859375-.878906 6.78125-2.65625zm0 0"/><path d="m457.515625 395.925781c-3.75-4.054687-10.078125-4.296875-14.132813-.550781-4.050781 3.75-4.296874 10.078125-.546874 14.132812l2.902343 3.136719c5.957031 6.441407 7.816407 15.570313 4.847657 23.828125-3.332032 9.269532-12.1875 15.496094-22.039063 15.496094-5.519531 0-9.996094 4.476562-9.996094 10 0 5.519531 4.476563 10 9.996094 10 18.265625 0 34.683594-11.546875 40.859375-28.730469 5.503906-15.308593 2.058594-32.230469-8.988281-44.171875zm0 0"/><path d="m53.996094 397.121094c2.628906 0 5.210937-1.066406 7.070312-2.929688 1.859375-1.867187 2.929688-4.4375 2.929688-7.070312 0-2.628906-1.070313-5.207032-2.929688-7.066406-1.859375-1.859376-4.441406-2.929688-7.070312-2.929688s-5.210938 1.066406-7.070313 2.929688c-1.859375 1.859374-2.929687 4.4375-2.929687 7.066406 0 2.632812 1.070312 5.210937 2.929687 7.070312 1.863281 1.859375 4.441407 2.929688 7.070313 2.929688zm0 0"/></svg>