<svg height="512" viewBox="0 0 512 512" width="512" xmlns="http://www.w3.org/2000/svg"><g id="Filled_outline" data-name="Filled outline"><path d="m256.059 312.062a48.529 48.529 0 0 1 -44.605-29.412l-11.4-26.588h112l-11.389 26.588a48.53 48.53 0 0 1 -44.606 29.412z" fill="#6e3c24"/><path d="m399.94 216h-288a101.994 101.994 0 0 1 47.25-86.06l15.69-9.99a99.326 99.326 0 0 1 8.86-5.03 100.593 100.593 0 0 1 16.13-6.47 101.719 101.719 0 0 1 29.78-4.45h52.58a102.325 102.325 0 0 1 45.45 10.68 103.085 103.085 0 0 1 9.32 5.27l3.2 2.04 12.5 7.95a102.043 102.043 0 0 1 47.24 86.06z" fill="#f27900"/><path d="m423.94 236a19.994 19.994 0 0 1 -20 20h-296a19.765 19.765 0 0 1 -4.31-.47 20 20 0 0 1 4.31-39.53h296a19.994 19.994 0 0 1 20 20z" fill="#ffb531"/><path d="m423.94 236a19.994 19.994 0 0 1 -20 20h-296a19.765 19.765 0 0 1 -4.31-.47c34.64-6.75 75.93-18.68 117.39-39.53q7.56-3.8 15.11-8 13.185-7.35 26.23-16a363.4 363.4 0 0 0 43.95-34.38q5.865-5.34 11.57-11.06 11.5-11.52 22.32-24.57l12.5 7.95a102.043 102.043 0 0 1 47.24 86.06h4a19.994 19.994 0 0 1 20 20z" fill="#e67007"/><path d="m423.94 236a19.994 19.994 0 0 1 -20 20h-296a19.765 19.765 0 0 1 -4.31-.47c34.64-6.75 75.93-18.68 117.39-39.53h182.92a19.994 19.994 0 0 1 20 20z" fill="#ffa912"/><path d="m152 256.062v24a8 8 0 0 1 -8 8h-120a64 64 0 0 0 64 64h48a64 64 0 0 0 64-64v-32z" fill="#8a5034"/><path d="m360 256.062v24a8 8 0 0 0 8 8h120a64 64 0 0 1 -64 64h-48a64 64 0 0 1 -64-64v-32z" fill="#8a5034"/><path d="m312 232.06v24l-32 8-24 24-24-24-32-8v-24a56.006 56.006 0 0 1 92.52-42.46c1.06.92 2.09 1.87 3.08 2.86a55.862 55.862 0 0 1 16.4 39.6z" fill="#92563a"/><path d="m312 232.06v24l-32 8-24 24-18.15-18.15c24.53-18 46.44-43.78 54.67-80.31 1.06.92 2.09 1.87 3.08 2.86a55.862 55.862 0 0 1 16.4 39.6z" fill="#8a5034"/><path d="m432.06 384.06a19.333 19.333 0 0 1 -5.66 13.66l-17.5 17.51-19.18 19.18a19.338 19.338 0 0 1 -27.32 0l-12.68-12.69-64.12-64.12a44.985 44.985 0 0 1 -9.54-49.54l-20-20 24-24 20 20a44.99 44.99 0 0 1 49.54 9.54l76.8 76.81a19.27 19.27 0 0 1 5.66 13.65z" fill="#4db7e5"/><path d="m408.9 415.23-19.18 19.18a19.338 19.338 0 0 1 -27.32 0l-12.68-12.69-64.12-64.12a44.985 44.985 0 0 1 -9.54-49.54l-20-20 5.5-5.5c15.19 17.61 32.28 37.11 51.95 56.75q5.58 5.565 11.46 11.16 6.42 6.09 13.22 12.16 5.91 5.28 12.13 10.49 6.825 5.745 14.02 11.36 6.315 4.92 12.91 9.71c10.02 7.29 20.55 14.34 31.65 21.04z" fill="#48add9"/><circle cx="80.059" cy="88.062" fill="#4db7e5" r="16"/><circle cx="448.059" cy="168.062" fill="#4db7e5" r="16"/><path d="m152 256h48v16h-48z" fill="#7a432a"/><path d="m312 256h48v16h-48z" fill="#7a432a"/><path d="m368 272.039.039-7.961h36.039a28 28 0 0 0 3.727-55.75 110.013 110.013 0 0 0 -50.7-85.07l-15.7-10.016a110.159 110.159 0 0 0 -59.085-17.164h-52.562a110.177 110.177 0 0 0 -59.1 17.18l-15.664 9.992a109.346 109.346 0 0 0 -50.648 85.078 28 28 0 0 0 3.734 55.75h35.984v15.984h-120a8 8 0 0 0 -8 8 72.078 72.078 0 0 0 72 72h48a72.033 72.033 0 0 0 71.752-67.1 56.542 56.542 0 0 0 48.264 27.117 57.143 57.143 0 0 0 8.815-.753 52.644 52.644 0 0 0 15.052 43.933l76.8 76.8a27.312 27.312 0 0 0 38.633.007l36.695-36.695a27.311 27.311 0 0 0 -.008-38.617l-76.8-76.805a52.633 52.633 0 0 0 -41.6-15.287l3.694-8.58h34.692l-.053 7.879zm36.078-47.961a12 12 0 0 1 0 24h-84.016v-16.016a64.2 64.2 0 0 0 -.555-8h80.493c.028 0 .051.016.078.016zm-184.687-80h73.375l24 24-17.189 17.189a63.63 63.63 0 0 0 -87.013-.015l-17.173-17.174zm112.015 31.984h51.55a93.641 93.641 0 0 1 8.628 32h-76.233a63.84 63.84 0 0 0 -5.46-10.484zm-123.344 56a48 48 0 0 1 96 0v17.75l-25.937 6.493c-.232.058-.436.185-.661.263-.251.087-.485.179-.727.29a7.924 7.924 0 0 0 -2.331 1.548l-18.344 18.344-18.343-18.344a8.013 8.013 0 0 0 -3.719-2.1l-25.938-6.493zm87.648 36.338 2.63-.658-.99 2.3zm52.8-131.639a93.88 93.88 0 0 1 24.923 23.3h-42.058l-24-24 15-15a94.426 94.426 0 0 1 10.433 5.683zm-66.188-24.68a94.145 94.145 0 0 1 23.406 3.009l-12.992 12.991h-73.345l-13-13a94.128 94.128 0 0 1 23.367-3zm-118.736 24.661 15.656-9.984a94.718 94.718 0 0 1 10.49-5.714l15.034 15.034-23.985 23.984h-42.221a93.945 93.945 0 0 1 25.026-23.32zm-63.945 107.906a12.228 12.228 0 0 1 -3.563-8.57 12.013 12.013 0 0 1 12-12h4a8 8 0 0 0 8-8 93.989 93.989 0 0 1 9.053-40.016h51.619l21.5 21.5a63.742 63.742 0 0 0 -5.472 10.5h-60.716v16h56.556a64.2 64.2 0 0 0 -.556 8v16h-40c-.027 0-.05.016-.077.016h-43.907a12.125 12.125 0 0 1 -8.437-3.43zm36.421 99.414h-48a56.083 56.083 0 0 1 -55.429-48h111.429a16.02 16.02 0 0 0 16-16v-15.984h32v23.984a56.067 56.067 0 0 1 -56 56zm82.735-64.57-5.028-11.757 14.2 3.554 22.437 22.43 9.92 9.92a37.919 37.919 0 0 1 -41.526-24.147zm125.148 19.766 76.8 76.8a11.317 11.317 0 0 1 .008 16.007l-36.691 36.685a11.587 11.587 0 0 1 -16 0l-12.687-12.688 38.344-38.343-11.313-11.313-38.344 38.344-12.687-12.688 38.344-38.343-11.313-11.313-38.344 38.344-12.687-12.688 38.344-38.343-11.313-11.313-38.344 38.344-4.8-4.805a36.825 36.825 0 0 1 -7.844-40.734 8 8 0 0 0 -1.695-8.805l-14.343-14.343 12.69-12.685 14.34 14.341a7.991 7.991 0 0 0 8.813 1.695 36.857 36.857 0 0 1 40.722 7.844z"/><path d="m488.078 280.078h-112.078v16h103.516a55.937 55.937 0 0 1 -41.493 46.266l3.954 15.5a71.927 71.927 0 0 0 54.1-69.766 8 8 0 0 0 -7.999-8z"/><path d="m224.063 216.063h16v16h-16z"/><path d="m272.063 216.063h16v16h-16z"/><path d="m104.062 88.062a24 24 0 1 0 -24 24 24.026 24.026 0 0 0 24-24zm-32 0a8 8 0 1 1 8 8 8.005 8.005 0 0 1 -8-8z"/><path d="m120.063 104.063h16v16h-16z"/><path d="m472.062 168.062a24 24 0 1 0 -24 24 24.026 24.026 0 0 0 24-24zm-32 0a8 8 0 1 1 8 8 8.005 8.005 0 0 1 -8-8z"/><path d="m176.063 368.063h80v16h-80z"/><path d="m256.063 400.063h16v16h-16z"/><path d="m200.063 400.063h40v16h-40z"/><path d="m344.063 64.063h80v16h-80z"/><path d="m376.063 96.063h80v16h-80z"/></g></svg>